<?xml version="1.0" encoding="UTF-8" standalone="no"?>
<!-- Created with Inkscape (http://www.inkscape.org/) -->

<svg
   xmlns:dc="http://purl.org/dc/elements/1.1/"
   xmlns:cc="http://creativecommons.org/ns#"
   xmlns:rdf="http://www.w3.org/1999/02/22-rdf-syntax-ns#"
   xmlns:svg="http://www.w3.org/2000/svg"
   xmlns="http://www.w3.org/2000/svg"
   xmlns:sodipodi="http://sodipodi.sourceforge.net/DTD/sodipodi-0.dtd"
   xmlns:inkscape="http://www.inkscape.org/namespaces/inkscape"
   version="1.1"
   width="100%"
   height="100%"
   viewBox="0 0 305.3 305.3"
   id="svg2"
   inkscape:version="0.48.5 r10040"
   sodipodi:docname="html5_connectivity_flat.svg">
  <sodipodi:namedview
     pagecolor="#ffffff"
     bordercolor="#666666"
     borderopacity="1"
     objecttolerance="10"
     gridtolerance="10"
     guidetolerance="10"
     inkscape:pageopacity="0"
     inkscape:pageshadow="2"
     inkscape:window-width="1366"
     inkscape:window-height="702"
     id="namedview7"
     showgrid="false"
     fit-margin-top="0"
     fit-margin-left="0"
     fit-margin-right="0"
     fit-margin-bottom="0"
     inkscape:zoom="0.67428571"
     inkscape:cx="152.65"
     inkscape:cy="114.55"
     inkscape:window-x="0"
     inkscape:window-y="27"
     inkscape:window-maximized="1"
     inkscape:current-layer="svg2" />
  <title
     id="title4">HTML5 Connectivity Logo</title>
  <metadata
     id="metadata12">
    <rdf:RDF>
      <cc:Work
         rdf:about="">
        <dc:format>image/svg+xml</dc:format>
        <dc:type
           rdf:resource="http://purl.org/dc/dcmitype/StillImage" />
        <dc:title>HTML5 Connectivity Logo</dc:title>
      </cc:Work>
    </rdf:RDF>
  </metadata>
  <defs
     id="defs10" />
  <path
     d="m 229.50001,210.6 37.95,0 0,-90.99999 -42.75,-42.699995 -26.8,26.799995 31.6,31.6 z m 37.95,19 -132.15,0 -31.6,-31.6 13.4,-13.4 26.1,26.1 53.7,0 -52.9,-53 13.5,-13.5 52.9,52.9 0,-53.7 -26,-25.99999 13.3,-13.3 -65.7,-66.000002 -132.0000038964841,0 L 37.800006,75.900015 l 0,0.1 0.2,0 78.200004,0 27.7,27.699995 -40.5,40.49999 -27.700004,-27.69999 0,-21.499995 -37.9,0 0,37.199995 65.600004,65.59999 -26.700004,26.7 42.700004,42.7 185.9,0 0,0 z"
     id="path6"
     style="fill:#231f20"
     inkscape:connector-curvature="0" />
</svg>
